<?xml version="1.0" encoding="utf-8"?>
<!-- Generator: Adobe Illustrator 16.0.0, SVG Export Plug-In . SVG Version: 6.00 Build 0)  -->
<!DOCTYPE svg PUBLIC "-//W3C//DTD SVG 1.1//EN" "http://www.w3.org/Graphics/SVG/1.1/DTD/svg11.dtd">
<svg version="1.1" id="Layer_1" xmlns="http://www.w3.org/2000/svg" xmlns:xlink="http://www.w3.org/1999/xlink" x="0px" y="0px"
	 width="128px" height="128px" viewBox="233.64 356.945 128 128" enable-background="new 233.64 356.945 128 128"
	 xml:space="preserve">
<rect x="747.666" y="183.666" fill="none" width="188.666" height="107"/>
<text transform="matrix(1 0 0 1 747.6672 189.0015)" fill="#FFFFFF" font-family="'ProximaNova-Bold'" font-size="8">Features            Install          Support</text>
<text transform="matrix(1 0 0 1 747.6672 227.0015)" fill="#FFFFFF" font-family="'FontAwesome'" font-size="8"></text>
<text transform="matrix(1 0 0 1 755.6672 227.0015)" fill="#FFFFFF" font-family="'ProximaNova-Light'" font-size="8">  Interactive Shortcodes Builder</text>
<text transform="matrix(1 0 0 1 747.6672 241.0015)" fill="#FFFFFF" font-family="'FontAwesome'" font-size="8"></text>
<text transform="matrix(1 0 0 1 755.6672 241.0015)" fill="#FFFFFF" font-family="'ProximaNova-Light'" font-size="8">  FontAwesome Support</text>
<text transform="matrix(1 0 0 1 747.6672 255.0015)" fill="#FFFFFF" font-family="'FontAwesome'" font-size="8"></text>
<text transform="matrix(1 0 0 1 755.6672 255.0015)" fill="#FFFFFF" font-family="'ProximaNova-Light'" font-size="8">  Real Time Validation</text>
<text transform="matrix(1 0 0 1 747.6672 269.0015)" fill="#FFFFFF" font-family="'FontAwesome'" font-size="8"></text>
<text transform="matrix(1 0 0 1 755.6672 269.0015)" fill="#FFFFFF" font-family="'ProximaNova-Light'" font-size="8">  Draggable and Easy Sorting </text>
<text transform="matrix(1 0 0 1 747.6672 283.0015)" fill="#FFFFFF" font-family="'FontAwesome'" font-size="8"></text>
<text transform="matrix(1 0 0 1 755.6672 283.0015)" fill="#FFFFFF" font-family="'ProximaNova-Light'" font-size="8">  Numerous Preset Styles with Bootstrap &amp; more...</text>
<g>
	<rect x="233.64" y="356.945" fill="#5B8F3A" width="128" height="128"/>
	<rect x="319.64" y="356.945" opacity="0.3" fill="#FFFFFF" enable-background="new    " width="42" height="30"/>
	<rect x="277.14" y="356.945" opacity="0.3" fill="#FFFFFF" enable-background="new    " width="42" height="30"/>
	<rect x="238.64" y="367.945" fill="#FFFFFF" width="33.75" height="10.5"/>
	<rect x="281.265" y="367.945" opacity="0.9" fill="#FFFFFF" enable-background="new    " width="33.75" height="10.5"/>
	<rect x="323.765" y="367.945" opacity="0.9" fill="#FFFFFF" enable-background="new    " width="33.75" height="10.5"/>
	<g>
		<rect x="244.312" y="404.46" fill="#FFFFFF" width="109" height="3.688"/>
		<rect x="244.312" y="418.397" fill="#FFFFFF" width="109" height="3.688"/>
		<rect x="244.312" y="432.335" fill="#FFFFFF" width="109" height="3.688"/>
		<rect x="244.312" y="446.272" fill="#FFFFFF" width="109" height="3.688"/>
		<rect x="244.312" y="460.21" fill="#FFFFFF" width="82.216" height="3.688"/>
	</g>
</g>
</svg>
